<svg width="20" height="20" viewBox="0 0 20 20" fill="none" xmlns="http://www.w3.org/2000/svg">
<g id="circle_cross">
<path id="circle" fill-rule="evenodd" clip-rule="evenodd" d="M10 20C15.5228 20 20 15.5228 20 10C20 4.47715 15.5228 0 10 0C4.47715 0 0 4.47715 0 10C0 15.5228 4.47715 20 10 20Z" fill="#DB0000"/>
<path id="icon" fill-rule="evenodd" clip-rule="evenodd" d="M13.5306 6.46937C13.2381 6.17688 12.7639 6.17688 12.4714 6.46937L10 8.94081L7.52856 6.46937C7.23607 6.17688 6.76185 6.17688 6.46937 6.46937C6.17688 6.76185 6.17688 7.23607 6.46937 7.52856L8.94081 10L6.46937 12.4714C6.17688 12.7639 6.17688 13.2381 6.46937 13.5306C6.76185 13.8231 7.23607 13.8231 7.52856 13.5306L10 11.0592L12.4714 13.5306C12.7639 13.8231 13.2381 13.8231 13.5306 13.5306C13.8231 13.2381 13.8231 12.7639 13.5306 12.4714L11.0592 10L13.5306 7.52856C13.8231 7.23607 13.8231 6.76185 13.5306 6.46937Z" fill="white"/>
</g>
</svg>
