<svg width="20" height="20" viewBox="0 0 20 20" fill="none" xmlns="http://www.w3.org/2000/svg">
<g id="circle_tick_coloured/Tick">
<path id="circle" fill-rule="evenodd" clip-rule="evenodd" d="M10 20C15.5228 20 20 15.5228 20 10C20 4.47715 15.5228 0 10 0C4.47715 0 0 4.47715 0 10C0 15.5228 4.47715 20 10 20Z" fill="#1CA756"/>
<path id="icon" d="M7.68462 10.0322C7.36596 9.70017 6.83844 9.68929 6.50636 10.0079C6.17428 10.3266 6.1634 10.8541 6.48205 11.1862L8.29638 13.077C8.6445 13.4398 9.23218 13.414 9.54718 13.0221L13.5662 8.02207C13.8545 7.66335 13.7975 7.13881 13.4388 6.85047C13.08 6.56213 12.5555 6.61919 12.2671 6.97791L8.84231 11.2387L7.68462 10.0322Z" fill="white"/>
</g>
</svg>
