<svg width="20" height="20" viewBox="0 0 20 20" fill="none" xmlns="http://www.w3.org/2000/svg">
<g id="warning">
<path id="circle" fill-rule="evenodd" clip-rule="evenodd" d="M10 20C15.5228 20 20 15.5228 20 10C20 4.47715 15.5228 0 10 0C4.47715 0 0 4.47715 0 10C0 15.5228 4.47715 20 10 20Z" fill="#FF5A00"/>
<g id="icon">
<path d="M10 4.16667C9.30964 4.16667 8.75 4.72632 8.75 5.41667V10.4167C8.75 11.107 9.30964 11.6667 10 11.6667C10.6904 11.6667 11.25 11.107 11.25 10.4167V5.41667C11.25 4.72632 10.6904 4.16667 10 4.16667Z" fill="white"/>
<path d="M10 13.3333C9.30964 13.3333 8.75 13.893 8.75 14.5833C8.75 15.2737 9.30964 15.8333 10 15.8333C10.6904 15.8333 11.25 15.2737 11.25 14.5833C11.25 13.893 10.6904 13.3333 10 13.3333Z" fill="white"/>
</g>
</g>
</svg>
